<mxfile host="app.diagrams.net" agent="Mozilla/5.0 (Windows NT 10.0; Win64; x64) AppleWebKit/537.36 (KHTML, like Gecko) Chrome/133.0.0.0 Safari/537.36" version="26.0.16">
  <diagram name="Page-1" id="e7e014a7-5840-1c2e-5031-d8a46d1fe8dd">
    <mxGraphModel dx="795" dy="622" grid="0" gridSize="10" guides="1" tooltips="1" connect="1" arrows="1" fold="1" page="0" pageScale="1" pageWidth="1169" pageHeight="826" background="none" math="0" shadow="0">
      <root>
        <mxCell id="0" />
        <mxCell id="1" parent="0" />
        <mxCell id="3" value="Руководитель технической поддержки" style="swimlane;whiteSpace=wrap" parent="1" vertex="1">
          <mxGeometry x="444.5" y="128" width="280" height="1002" as="geometry" />
        </mxCell>
        <mxCell id="13" value="" style="ellipse;shape=startState;fillColor=#000000;strokeColor=#ff0000;" parent="3" vertex="1">
          <mxGeometry x="121.5" y="35" width="30" height="30" as="geometry" />
        </mxCell>
        <mxCell id="14" value="" style="edgeStyle=elbowEdgeStyle;elbow=horizontal;verticalAlign=bottom;endArrow=open;endSize=8;strokeColor=#FF0000;endFill=1;rounded=0" parent="3" source="13" target="15" edge="1">
          <mxGeometry x="40" y="20" as="geometry">
            <mxPoint x="55" y="90" as="targetPoint" />
          </mxGeometry>
        </mxCell>
        <mxCell id="15" value="Просмотр заявок" style="" parent="3" vertex="1">
          <mxGeometry x="81.5" y="84" width="110" height="30" as="geometry" />
        </mxCell>
        <mxCell id="17" value="" style="endArrow=open;strokeColor=#FF0000;endFill=1;rounded=0" parent="3" source="15" target="CKNkk8lTZ7u9NzGgu5Jo-43" edge="1">
          <mxGeometry relative="1" as="geometry">
            <mxPoint x="136.5" y="183" as="targetPoint" />
          </mxGeometry>
        </mxCell>
        <mxCell id="CKNkk8lTZ7u9NzGgu5Jo-43" value="Выбор заявки" style="" vertex="1" parent="3">
          <mxGeometry x="81.5" y="139" width="110" height="28" as="geometry" />
        </mxCell>
        <mxCell id="CKNkk8lTZ7u9NzGgu5Jo-44" value="Просмотр карточки заявки" style="" vertex="1" parent="3">
          <mxGeometry x="56.25" y="295" width="160.5" height="28" as="geometry" />
        </mxCell>
        <mxCell id="CKNkk8lTZ7u9NzGgu5Jo-47" value="Статус заявки &quot;Требует выезда&quot;" style="rhombus;whiteSpace=wrap;html=1;fontColor=#000000;fillColor=#ffffc0;strokeColor=#ff0000;" vertex="1" parent="3">
          <mxGeometry x="77.25" y="179" width="118.5" height="81" as="geometry" />
        </mxCell>
        <mxCell id="CKNkk8lTZ7u9NzGgu5Jo-48" value="no" style="edgeStyle=orthogonalEdgeStyle;html=1;align=left;verticalAlign=bottom;endArrow=open;endSize=8;strokeColor=#ff0000;rounded=0;exitX=0;exitY=0.5;exitDx=0;exitDy=0;" edge="1" source="CKNkk8lTZ7u9NzGgu5Jo-47" parent="3" target="15">
          <mxGeometry x="-1" relative="1" as="geometry">
            <mxPoint x="38.5" y="198" as="targetPoint" />
            <mxPoint x="64" y="217" as="sourcePoint" />
            <Array as="points">
              <mxPoint x="22" y="219" />
              <mxPoint x="22" y="99" />
            </Array>
          </mxGeometry>
        </mxCell>
        <mxCell id="CKNkk8lTZ7u9NzGgu5Jo-92" value="Отправить&lt;br&gt;обратно в ХД" style="edgeLabel;html=1;align=center;verticalAlign=middle;resizable=0;points=[];" vertex="1" connectable="0" parent="CKNkk8lTZ7u9NzGgu5Jo-48">
          <mxGeometry x="0.0322" y="-2" relative="1" as="geometry">
            <mxPoint as="offset" />
          </mxGeometry>
        </mxCell>
        <mxCell id="CKNkk8lTZ7u9NzGgu5Jo-49" value="yes" style="edgeStyle=orthogonalEdgeStyle;html=1;align=left;verticalAlign=top;endArrow=open;endSize=8;strokeColor=#ff0000;rounded=0;" edge="1" source="CKNkk8lTZ7u9NzGgu5Jo-47" parent="3" target="CKNkk8lTZ7u9NzGgu5Jo-44">
          <mxGeometry x="-1" relative="1" as="geometry">
            <mxPoint x="70.5" y="278" as="targetPoint" />
          </mxGeometry>
        </mxCell>
        <mxCell id="CKNkk8lTZ7u9NzGgu5Jo-50" value="" style="endArrow=open;strokeColor=#FF0000;endFill=1;rounded=0" edge="1" parent="3" source="CKNkk8lTZ7u9NzGgu5Jo-43" target="CKNkk8lTZ7u9NzGgu5Jo-47">
          <mxGeometry relative="1" as="geometry">
            <mxPoint x="147" y="124" as="sourcePoint" />
            <mxPoint x="147" y="149" as="targetPoint" />
          </mxGeometry>
        </mxCell>
        <mxCell id="CKNkk8lTZ7u9NzGgu5Jo-51" value="Прошло 30 мин с прошлой заявки выбранного инженера" style="rhombus;whiteSpace=wrap;html=1;fontColor=#000000;fillColor=#ffffc0;strokeColor=#ff0000;" vertex="1" parent="3">
          <mxGeometry x="77.25" y="347" width="118.5" height="81" as="geometry" />
        </mxCell>
        <mxCell id="CKNkk8lTZ7u9NzGgu5Jo-52" value="" style="endArrow=open;strokeColor=#FF0000;endFill=1;rounded=0" edge="1" parent="3" source="CKNkk8lTZ7u9NzGgu5Jo-44" target="CKNkk8lTZ7u9NzGgu5Jo-51">
          <mxGeometry relative="1" as="geometry">
            <mxPoint x="147" y="177" as="sourcePoint" />
            <mxPoint x="147" y="189" as="targetPoint" />
          </mxGeometry>
        </mxCell>
        <mxCell id="CKNkk8lTZ7u9NzGgu5Jo-54" value="no" style="edgeStyle=orthogonalEdgeStyle;html=1;align=left;verticalAlign=bottom;endArrow=open;endSize=8;strokeColor=#ff0000;rounded=0;" edge="1" parent="3" source="CKNkk8lTZ7u9NzGgu5Jo-51" target="CKNkk8lTZ7u9NzGgu5Jo-44">
          <mxGeometry x="-1" relative="1" as="geometry">
            <mxPoint x="77.25" y="260" as="targetPoint" />
            <mxPoint x="72.25" y="380" as="sourcePoint" />
            <Array as="points">
              <mxPoint x="17" y="388" />
              <mxPoint x="17" y="310" />
            </Array>
          </mxGeometry>
        </mxCell>
        <mxCell id="CKNkk8lTZ7u9NzGgu5Jo-73" value="no" style="edgeLabel;html=1;align=center;verticalAlign=middle;resizable=0;points=[];" vertex="1" connectable="0" parent="CKNkk8lTZ7u9NzGgu5Jo-54">
          <mxGeometry x="-0.8426" y="2" relative="1" as="geometry">
            <mxPoint as="offset" />
          </mxGeometry>
        </mxCell>
        <mxCell id="CKNkk8lTZ7u9NzGgu5Jo-56" value="Назначен инженер" style="" vertex="1" parent="3">
          <mxGeometry x="81.5" y="460" width="110" height="28" as="geometry" />
        </mxCell>
        <mxCell id="CKNkk8lTZ7u9NzGgu5Jo-53" value="yes" style="edgeStyle=orthogonalEdgeStyle;html=1;align=left;verticalAlign=top;endArrow=open;endSize=8;strokeColor=#ff0000;rounded=0;" edge="1" parent="3" source="CKNkk8lTZ7u9NzGgu5Jo-51" target="CKNkk8lTZ7u9NzGgu5Jo-56">
          <mxGeometry x="-1" relative="1" as="geometry">
            <mxPoint x="136.5" y="462" as="targetPoint" />
            <mxPoint x="223.5" y="268" as="sourcePoint" />
          </mxGeometry>
        </mxCell>
        <mxCell id="CKNkk8lTZ7u9NzGgu5Jo-85" value="Принятие решения по&#xa;дальнейшему ремонту" style="" vertex="1" parent="3">
          <mxGeometry x="62.879999999999995" y="793" width="147.25" height="28" as="geometry" />
        </mxCell>
        <mxCell id="CKNkk8lTZ7u9NzGgu5Jo-87" value="Решить проблему&lt;br&gt;возможно" style="rhombus;whiteSpace=wrap;html=1;fontColor=#000000;fillColor=#ffffc0;strokeColor=#ff0000;" vertex="1" parent="3">
          <mxGeometry x="72.94" y="846" width="127.12" height="73" as="geometry" />
        </mxCell>
        <mxCell id="CKNkk8lTZ7u9NzGgu5Jo-89" value="" style="endArrow=open;strokeColor=#FF0000;endFill=1;rounded=0" edge="1" parent="3" source="CKNkk8lTZ7u9NzGgu5Jo-85" target="CKNkk8lTZ7u9NzGgu5Jo-87">
          <mxGeometry relative="1" as="geometry">
            <mxPoint x="430" y="665" as="sourcePoint" />
            <mxPoint x="430" y="683" as="targetPoint" />
          </mxGeometry>
        </mxCell>
        <mxCell id="4" value="Инженер" style="swimlane;whiteSpace=wrap;startSize=23;" parent="1" vertex="1">
          <mxGeometry x="724.5" y="128" width="280" height="1003" as="geometry" />
        </mxCell>
        <mxCell id="CKNkk8lTZ7u9NzGgu5Jo-57" value="Просмотр заявки" style="" vertex="1" parent="4">
          <mxGeometry x="85" y="460" width="110" height="28" as="geometry" />
        </mxCell>
        <mxCell id="CKNkk8lTZ7u9NzGgu5Jo-60" value="Выезд по заявке" style="" vertex="1" parent="4">
          <mxGeometry x="85" y="517" width="110" height="28" as="geometry" />
        </mxCell>
        <mxCell id="CKNkk8lTZ7u9NzGgu5Jo-61" value="" style="endArrow=open;strokeColor=#FF0000;endFill=1;rounded=0" edge="1" parent="4" source="CKNkk8lTZ7u9NzGgu5Jo-57" target="CKNkk8lTZ7u9NzGgu5Jo-60">
          <mxGeometry relative="1" as="geometry">
            <mxPoint x="-133" y="334" as="sourcePoint" />
            <mxPoint x="-133" y="357" as="targetPoint" />
          </mxGeometry>
        </mxCell>
        <mxCell id="CKNkk8lTZ7u9NzGgu5Jo-63" value="Выполнение заявки" style="" vertex="1" parent="4">
          <mxGeometry x="85" y="574" width="110" height="28" as="geometry" />
        </mxCell>
        <mxCell id="CKNkk8lTZ7u9NzGgu5Jo-62" value="" style="endArrow=open;strokeColor=#FF0000;endFill=1;rounded=0" edge="1" parent="4" source="CKNkk8lTZ7u9NzGgu5Jo-60" target="CKNkk8lTZ7u9NzGgu5Jo-63">
          <mxGeometry relative="1" as="geometry">
            <mxPoint x="150" y="498" as="sourcePoint" />
            <mxPoint x="140.5" y="570" as="targetPoint" />
          </mxGeometry>
        </mxCell>
        <mxCell id="CKNkk8lTZ7u9NzGgu5Jo-65" value="Заявка выполнена" style="rhombus;whiteSpace=wrap;html=1;fontColor=#000000;fillColor=#ffffc0;strokeColor=#ff0000;" vertex="1" parent="4">
          <mxGeometry x="80.75" y="673" width="118.5" height="81" as="geometry" />
        </mxCell>
        <mxCell id="CKNkk8lTZ7u9NzGgu5Jo-68" value="Загрузка фото в заявку" style="" vertex="1" parent="4">
          <mxGeometry x="71.5" y="627" width="138" height="28" as="geometry" />
        </mxCell>
        <mxCell id="CKNkk8lTZ7u9NzGgu5Jo-70" value="Установить статус&#xa;&quot;Выполнена&quot; для заявки" style="" vertex="1" parent="4">
          <mxGeometry x="144" y="782" width="130" height="50.5" as="geometry" />
        </mxCell>
        <mxCell id="CKNkk8lTZ7u9NzGgu5Jo-75" value="Установить &#xa;соответствующий статус&#xa;для заявки" style="" vertex="1" parent="4">
          <mxGeometry x="6" y="781.5" width="129.5" height="51" as="geometry" />
        </mxCell>
        <mxCell id="CKNkk8lTZ7u9NzGgu5Jo-76" value="" style="ellipse;html=1;shape=endState;fillColor=#000000;strokeColor=#ff0000;" vertex="1" parent="4">
          <mxGeometry x="125" y="950" width="30" height="30" as="geometry" />
        </mxCell>
        <mxCell id="CKNkk8lTZ7u9NzGgu5Jo-77" value="" style="endArrow=open;strokeColor=#FF0000;endFill=1;rounded=0" edge="1" parent="4" source="CKNkk8lTZ7u9NzGgu5Jo-70" target="CKNkk8lTZ7u9NzGgu5Jo-76">
          <mxGeometry relative="1" as="geometry">
            <mxPoint x="165" y="766" as="sourcePoint" />
            <mxPoint x="192" y="792" as="targetPoint" />
          </mxGeometry>
        </mxCell>
        <mxCell id="CKNkk8lTZ7u9NzGgu5Jo-79" value="" style="endArrow=open;strokeColor=#FF0000;endFill=1;rounded=0" edge="1" parent="4" source="CKNkk8lTZ7u9NzGgu5Jo-68" target="CKNkk8lTZ7u9NzGgu5Jo-65">
          <mxGeometry relative="1" as="geometry">
            <mxPoint x="150" y="555" as="sourcePoint" />
            <mxPoint x="150" y="584" as="targetPoint" />
          </mxGeometry>
        </mxCell>
        <mxCell id="CKNkk8lTZ7u9NzGgu5Jo-80" value="" style="endArrow=open;strokeColor=#FF0000;endFill=1;rounded=0" edge="1" parent="4" source="CKNkk8lTZ7u9NzGgu5Jo-63" target="CKNkk8lTZ7u9NzGgu5Jo-68">
          <mxGeometry relative="1" as="geometry">
            <mxPoint x="150" y="665" as="sourcePoint" />
            <mxPoint x="150" y="694" as="targetPoint" />
          </mxGeometry>
        </mxCell>
        <mxCell id="CKNkk8lTZ7u9NzGgu5Jo-82" value="yes" style="edgeStyle=orthogonalEdgeStyle;html=1;align=left;verticalAlign=top;endArrow=open;endSize=8;strokeColor=#ff0000;rounded=0;" edge="1" parent="4" source="CKNkk8lTZ7u9NzGgu5Jo-65" target="CKNkk8lTZ7u9NzGgu5Jo-70">
          <mxGeometry x="-1" relative="1" as="geometry">
            <mxPoint x="-133" y="470" as="targetPoint" />
            <mxPoint x="-133" y="438" as="sourcePoint" />
          </mxGeometry>
        </mxCell>
        <mxCell id="CKNkk8lTZ7u9NzGgu5Jo-83" value="yes" style="edgeStyle=orthogonalEdgeStyle;html=1;align=left;verticalAlign=top;endArrow=open;endSize=8;strokeColor=#ff0000;rounded=0;" edge="1" parent="4" source="CKNkk8lTZ7u9NzGgu5Jo-65" target="CKNkk8lTZ7u9NzGgu5Jo-75">
          <mxGeometry x="-1" relative="1" as="geometry">
            <mxPoint x="219" y="792" as="targetPoint" />
            <mxPoint x="150" y="764" as="sourcePoint" />
          </mxGeometry>
        </mxCell>
        <mxCell id="CKNkk8lTZ7u9NzGgu5Jo-84" value="no" style="edgeLabel;html=1;align=center;verticalAlign=middle;resizable=0;points=[];" vertex="1" connectable="0" parent="CKNkk8lTZ7u9NzGgu5Jo-83">
          <mxGeometry x="0.0161" y="3" relative="1" as="geometry">
            <mxPoint x="-1" y="-6" as="offset" />
          </mxGeometry>
        </mxCell>
        <mxCell id="CKNkk8lTZ7u9NzGgu5Jo-58" value="" style="endArrow=open;strokeColor=#FF0000;endFill=1;rounded=0" edge="1" parent="1" source="CKNkk8lTZ7u9NzGgu5Jo-56" target="CKNkk8lTZ7u9NzGgu5Jo-57">
          <mxGeometry relative="1" as="geometry">
            <mxPoint x="591.5" y="252" as="sourcePoint" />
            <mxPoint x="591.5" y="277" as="targetPoint" />
          </mxGeometry>
        </mxCell>
        <mxCell id="CKNkk8lTZ7u9NzGgu5Jo-59" value="У инженера рабочий день" style="edgeLabel;html=1;align=center;verticalAlign=middle;resizable=0;points=[];" vertex="1" connectable="0" parent="CKNkk8lTZ7u9NzGgu5Jo-58">
          <mxGeometry x="-0.4159" relative="1" as="geometry">
            <mxPoint x="33" as="offset" />
          </mxGeometry>
        </mxCell>
        <mxCell id="CKNkk8lTZ7u9NzGgu5Jo-86" value="" style="endArrow=open;strokeColor=#FF0000;endFill=1;rounded=0" edge="1" parent="1" source="CKNkk8lTZ7u9NzGgu5Jo-75" target="CKNkk8lTZ7u9NzGgu5Jo-85">
          <mxGeometry relative="1" as="geometry">
            <mxPoint x="874.5" y="740" as="sourcePoint" />
            <mxPoint x="874.5" y="765" as="targetPoint" />
          </mxGeometry>
        </mxCell>
        <mxCell id="CKNkk8lTZ7u9NzGgu5Jo-88" value="yes" style="edgeStyle=orthogonalEdgeStyle;html=1;align=left;verticalAlign=top;endArrow=open;endSize=8;strokeColor=#ff0000;rounded=0;entryX=0;entryY=0.75;entryDx=0;entryDy=0;" edge="1" parent="1" source="CKNkk8lTZ7u9NzGgu5Jo-87" target="CKNkk8lTZ7u9NzGgu5Jo-57">
          <mxGeometry x="-1" relative="1" as="geometry">
            <mxPoint x="578" y="1093" as="targetPoint" />
            <mxPoint x="591.5" y="566" as="sourcePoint" />
            <Array as="points">
              <mxPoint x="483" y="1011" />
              <mxPoint x="483" y="626" />
              <mxPoint x="788" y="626" />
              <mxPoint x="788" y="609" />
            </Array>
          </mxGeometry>
        </mxCell>
        <mxCell id="CKNkk8lTZ7u9NzGgu5Jo-90" value="no" style="edgeStyle=orthogonalEdgeStyle;html=1;align=left;verticalAlign=top;endArrow=open;endSize=8;strokeColor=#ff0000;rounded=0;" edge="1" parent="1" source="CKNkk8lTZ7u9NzGgu5Jo-87" target="CKNkk8lTZ7u9NzGgu5Jo-76">
          <mxGeometry x="-1" relative="1" as="geometry">
            <mxPoint x="805.5" y="920" as="targetPoint" />
            <mxPoint x="874.5" y="892" as="sourcePoint" />
            <Array as="points">
              <mxPoint x="754" y="1011" />
              <mxPoint x="754" y="1093" />
            </Array>
          </mxGeometry>
        </mxCell>
      </root>
    </mxGraphModel>
  </diagram>
</mxfile>
